<svg xmlns="http://www.w3.org/2000/svg" width="512" height="512" viewBox="0 0 512 512">
  <rect width="512" height="512" fill="#000000" rx="51.2"/>
  <g transform="scale(0.3141104294478528)">
    
    <g>
      <path id="pnBJM9SMS" d="M0 9130 l0 -9130 25 0 26 0 -1 1578 c-1 867 -1 1616 0 1663 l0 87 473 -2 472 -1 -2 6225 c-1 3424 -2 6416 -3 6650 l0 425 -470 -1 -470 -1 0 158 0 159 471 2 471 3 -1 430 c-1 237 -1 532 -1 658 l0 227 -495 0 -495 0 0 -9130z"></path>
      <path id="pBmSFdLu6" d="M1313 18235 l0 -25 401 0 c4186 -2 4918 -1 4930 9 9 8 843 11 2978 11 2535 0 2967 -2 2977 -14 10 -12 279 -14 1841 -11 l1830 3 0 -76 c1 -43 1 -2628 0 -5747 0 -3118 0 -5703 0 -5742 l0 -73 -195 0 -195 0 0 -3285 0 -3285 210 0 210 0 0 9130 0 9130 -7494 0 -7493 0 0 -25z"></path>
      <path id="p1bllsl4Y" d="M12313 17438 l2 -473 143 -3 c83 -1 142 -7 142 -12 0 -7 528 -10 1480 -10 l1480 0 0 475 0 475 -1480 0 c-980 0 -1480 3 -1480 10 0 6 -55 10 -144 10 l-144 0 1 -472z"></path>
      <path id="pgUZvHXUn" d="M12311 15328 l-1 -1318 1035 0 1035 0 -1 1283 c0 705 -3 1293 -5 1307 l-4 25 -877 -2 c-595 -1 -881 1 -890 8 -7 6 -72 11 -152 12 l-140 2 0 -1317z"></path>
      <path id="p1E3aTA6fM" d="M1314 13855 l1 -2770 2650 0 2650 0 -2 2760 c-1 1518 -2 2765 -3 2770 0 7 -890 10 -2648 10 l-2648 0 0 -2770z"></path>
      <path id="p1HsvvsORq" d="M14690 15318 l0 -1308 435 0 435 0 -2 1306 -3 1306 -433 1 -432 2 0 -1307z"></path>
      <path id="poAzaEaNX" d="M8740 16120 c-167 -19 -263 -70 -356 -191 -81 -106 -125 -234 -149 -439 -36 -305 -1 -598 96 -799 117 -242 364 -360 642 -307 215 41 359 192 422 440 49 191 57 497 19 717 -39 228 -147 413 -299 511 -84 55 -242 84 -375 68z m205 -332 c87 -92 121 -282 112 -623 -9 -330 -57 -463 -177 -499 -122 -36 -215 56 -256 256 -21 101 -30 457 -15 572 18 130 55 239 99 288 47 51 64 59 136 55 55 -3 61 -6 101 -49z"></path>
      <path id="pLXI6uzLg" d="M11345 16119 c-96 -7 -219 -35 -264 -58 -20 -11 -21 -19 -21 -166 l0 -154 73 34 c112 53 183 68 311 63 100 -3 116 -6 158 -31 91 -53 127 -106 135 -196 19 -205 -136 -293 -470 -268 -67 4 -133 9 -147 10 l-25 2 3 -110 c3 -108 22 -411 42 -650 5 -66 10 -137 10 -157 l0 -38 439 0 439 0 7 139 c4 77 4 144 0 150 -4 8 -102 11 -304 11 l-298 0 -13 160 c-7 88 -11 163 -8 165 3 3 65 7 139 9 189 5 291 35 393 113 49 38 129 141 120 155 -3 4 1 18 9 30 30 49 40 116 34 241 -5 122 -13 158 -50 232 -50 100 -153 202 -257 255 -99 50 -275 73 -455 59z"></path>
      <path id="p04jw9r5Z" d="M6860 15987 c0 -246 102 -425 352 -619 43 -33 76 -63 75 -67 -1 -5 35 -36 80 -70 165 -125 228 -221 228 -353 0 -69 -3 -80 -30 -119 -42 -59 -91 -81 -187 -87 -136 -8 -279 41 -395 136 l-43 34 0 -166 0 -166 59 -30 c154 -77 264 -104 426 -104 135 0 208 15 313 66 191 90 278 310 220 548 -22 90 -93 214 -157 274 -16 16 -28 33 -25 38 7 11 -11 27 -197 167 -251 189 -309 245 -309 301 0 20 4 20 355 20 l355 0 0 150 0 150 -560 0 -560 0 0 -103z"></path>
      <path id="pjUaqgnBe" d="M9620 15987 c0 -250 120 -459 362 -631 37 -26 67 -51 65 -55 -1 -4 32 -35 73 -68 162 -131 226 -219 237 -326 15 -145 -62 -226 -222 -235 -135 -7 -257 32 -371 119 -28 22 -55 39 -60 39 -6 0 -9 -64 -7 -157 l3 -158 53 -31 c124 -71 272 -109 432 -108 177 0 304 40 399 125 101 90 146 196 146 346 0 148 -47 273 -149 393 -25 30 -45 57 -44 61 2 7 -86 84 -137 119 -19 13 -37 27 -40 30 -10 10 -86 67 -135 100 -64 43 -163 137 -181 172 -8 15 -14 36 -14 48 0 20 4 20 350 20 l350 0 0 150 0 150 -555 0 -555 0 0 -103z"></path>
      <path id="pvF67oSX6" d="M10636 13494 c-15 -14 -16 -179 -14 -1707 l3 -1692 517 -3 516 -2 11 32 c5 18 38 141 71 273 52 202 181 687 226 845 36 130 71 264 249 950 64 249 61 245 94 120 11 -41 38 -147 61 -235 41 -156 89 -340 205 -790 31 -121 74 -281 95 -355 42 -148 84 -309 155 -585 25 -99 51 -197 56 -217 l10 -38 519 0 520 0 0 1696 c0 1456 -2 1697 -14 1710 -12 11 -67 14 -308 14 -161 0 -299 -4 -305 -8 -10 -6 -13 -288 -13 -1320 0 -721 -4 -1313 -9 -1316 -4 -3 -45 144 -90 326 -45 182 -100 397 -122 477 -21 80 -113 443 -204 806 -206 823 -253 1006 -267 1022 -8 11 -77 13 -326 11 l-316 -3 -12 -25 c-7 -14 -17 -43 -22 -65 -6 -22 -20 -74 -31 -115 -11 -41 -23 -86 -25 -100 -3 -14 -89 -358 -192 -765 -102 -407 -231 -920 -286 -1140 -55 -220 -104 -404 -109 -409 -5 -6 -9 514 -9 1301 l0 1311 -22 6 c-13 3 -152 6 -310 6 -248 0 -289 -2 -302 -16z"></path>
      <path id="pxDC0C5Wn" d="M1315 10330 l-1 -435 2648 0 c2347 0 2648 2 2649 15 0 14 0 822 -1 845 0 7 -867 10 -2647 10 l-2648 0 0 -435z"></path>
      <path id="prpWNui3o" d="M10182 8234 l3 -1346 2095 -2 2095 -1 -1 1345 -1 1345 -2097 3 -2096 2 2 -1346z"></path>
      <path id="paETw5yTH" d="M2548 8160 c-17 -10 -18 -102 -18 -1700 0 -928 2 -1694 5 -1702 4 -11 158 -12 888 -7 485 4 918 10 962 13 351 29 615 197 758 481 50 101 66 155 77 265 26 248 -47 466 -220 653 -45 50 -133 118 -187 145 -23 12 -44 26 -47 31 -4 5 15 17 41 26 372 132 583 422 583 800 0 184 -33 315 -122 490 -91 178 -252 331 -423 402 -144 61 -293 82 -640 94 -448 15 -1637 21 -1657 9z m1822 -601 c120 -33 199 -93 254 -192 37 -68 41 -82 56 -184 22 -155 -46 -316 -170 -405 -63 -45 -177 -82 -290 -94 -41 -5 -282 -8 -535 -9 l-460 0 -3 440 c-1 242 0 446 3 453 8 20 1068 12 1145 -9z m-183 -1473 c215 -32 337 -143 363 -329 11 -78 -4 -188 -34 -245 -30 -57 -88 -112 -149 -141 -110 -51 -159 -55 -672 -56 l-470 0 -3 393 -2 392 437 0 c322 0 462 -4 530 -14z"></path>
      <path id="p4KMTSs47" d="M6935 1703 l0 -1308 1460 2 1460 2 3 1306 2 1305 -1462 0 -1463 0 0 -1307z"></path>
      <path id="pzYp0Eu6o" d="M10185 1262 c-3 -3 -5 -288 -5 -634 l0 -628 2690 0 2690 0 -2 633 -3 632 -2682 1 c-1476 1 -2685 -1 -2688 -4z"></path>
      <path id="p17NPQHyJo" d="M6939 78 c-1 -2 -3 -20 -4 -40 l-4 -38 1465 0 1464 0 0 40 0 40 -1460 0 c-803 0 -1460 -1 -1461 -2z"></path>
    
  </g>
</svg>