<?xml version="1.0" encoding="UTF-8" standalone="no"?>
<!-- Created with Inkscape (http://www.inkscape.org/) -->

<svg
   version="1.1"
   id="svg1"
   width="1333.3333"
   height="542"
   viewBox="0 0 1333.3333 542"
   sodipodi:docname="process.science Logotype CMYK.eps"
   xmlns:inkscape="http://www.inkscape.org/namespaces/inkscape"
   xmlns:sodipodi="http://sodipodi.sourceforge.net/DTD/sodipodi-0.dtd"
   xmlns="http://www.w3.org/2000/svg"
   xmlns:svg="http://www.w3.org/2000/svg">
  <defs
     id="defs1" />
  <sodipodi:namedview
     id="namedview1"
     pagecolor="#ffffff"
     bordercolor="#000000"
     borderopacity="0.25"
     inkscape:showpageshadow="2"
     inkscape:pageopacity="0.0"
     inkscape:pagecheckerboard="0"
     inkscape:deskcolor="#d1d1d1">
    <inkscape:page
       x="0"
       y="0"
       inkscape:label="1"
       id="page1"
       width="1333.3333"
       height="542"
       margin="0"
       bleed="0" />
  </sodipodi:namedview>
  <g
     id="g1"
     inkscape:groupmode="layer"
     inkscape:label="1">
    <g
       id="group-R5">
      <path
         id="path2"
         d="m 4753.14,1478.22 v -369.54 l 369.56,369.54 v 369.55 l -369.56,-369.55"
         style="fill:#dd2233;fill-opacity:1;fill-rule:nonzero;stroke:none"
         transform="matrix(0.13333333,0,0,-0.13333333,0,542)" />
      <path
         id="path3"
         d="m 3058.41,1108.66 v 369.55 L 2688.86,1108.66 V 739.121 l 369.55,369.539"
         style="fill:#dd2233;fill-opacity:1;fill-rule:nonzero;stroke:none"
         transform="matrix(0.13333333,0,0,-0.13333333,0,542)" />
      <path
         id="path4"
         d="m 2688.85,369.551 369.54,369.551 V 369.551 Z"
         style="fill:#dd2233;fill-opacity:1;fill-rule:nonzero;stroke:none"
         transform="matrix(0.13333333,0,0,-0.13333333,0,542)" />
      <path
         id="path5"
         d="m 5122.7,739.109 -369.56,-369.55 v 369.55 z"
         style="fill:#dd2233;fill-opacity:1;fill-rule:nonzero;stroke:none"
         transform="matrix(0.13333333,0,0,-0.13333333,0,542)" />
      <path
         id="path6"
         d="M 5861.8,369.551 5492.28,0 v 369.551 z"
         style="fill:#dd2233;fill-opacity:1;fill-rule:nonzero;stroke:none"
         transform="matrix(0.13333333,0,0,-0.13333333,0,542)" />
      <path
         id="path7"
         d="M 369.551,0 0,369.551 h 369.551 z"
         style="fill:#dd2233;fill-opacity:1;fill-rule:nonzero;stroke:none"
         transform="matrix(0.13333333,0,0,-0.13333333,0,542)" />
      <path
         id="path8"
         d="M 369.551,1847.77 739.098,1478.22 H 369.551 Z"
         style="fill:#dd2233;fill-opacity:1;fill-rule:nonzero;stroke:none"
         transform="matrix(0.13333333,0,0,-0.13333333,0,542)" />
      <path
         id="path9"
         d="M 369.551,739.109 0,1108.66 h 369.551 z"
         style="fill:#dd2233;fill-opacity:1;fill-rule:nonzero;stroke:none"
         transform="matrix(0.13333333,0,0,-0.13333333,0,542)" />
      <path
         id="path10"
         d="M 739.109,1108.66 1108.57,739.121 H 739.109 Z"
         style="fill:#dd2233;fill-opacity:1;fill-rule:nonzero;stroke:none"
         transform="matrix(0.13333333,0,0,-0.13333333,0,542)" />
      <path
         id="path11"
         d="m 2107.96,1478.22 -369.55,369.55 h 369.55 z"
         style="fill:#dd2233;fill-opacity:1;fill-rule:nonzero;stroke:none"
         transform="matrix(0.13333333,0,0,-0.13333333,0,542)" />
      <path
         id="path12"
         d="M 2477.52,369.551 2107.97,0 v 369.551 z"
         style="fill:#dd2233;fill-opacity:1;fill-rule:nonzero;stroke:none"
         transform="matrix(0.13333333,0,0,-0.13333333,0,542)" />
      <path
         id="path13"
         d="M 1368.85,1108.66 1738.4,739.121 h -369.55 z"
         style="fill:#dd2233;fill-opacity:1;fill-rule:nonzero;stroke:none"
         transform="matrix(0.13333333,0,0,-0.13333333,0,542)" />
      <path
         id="path14"
         d="m 3741.86,1478.22 -369.55,-369.54 v 369.54 z"
         style="fill:#dd2233;fill-opacity:1;fill-rule:nonzero;stroke:none"
         transform="matrix(0.13333333,0,0,-0.13333333,0,542)" />
      <path
         id="path15"
         d="M 3741.86,1108.66 4111.41,739.121 H 3741.86 Z"
         style="fill:#dd2233;fill-opacity:1;fill-rule:nonzero;stroke:none"
         transform="matrix(0.13333333,0,0,-0.13333333,0,542)" />
      <path
         id="path16"
         d="M 4111.41,369.551 3741.86,0 v 369.551 z"
         style="fill:#dd2233;fill-opacity:1;fill-rule:nonzero;stroke:none"
         transform="matrix(0.13333333,0,0,-0.13333333,0,542)" />
      <path
         id="path17"
         d="m 4111.41,1847.77 369.55,-369.55 h -369.55 z"
         style="fill:#dd2233;fill-opacity:1;fill-rule:nonzero;stroke:none"
         transform="matrix(0.13333333,0,0,-0.13333333,0,542)" />
      <path
         id="path18"
         d="M 4480.96,369.551 4111.41,0 v 369.551 z"
         style="fill:#dd2233;fill-opacity:1;fill-rule:nonzero;stroke:none"
         transform="matrix(0.13333333,0,0,-0.13333333,0,542)" />
      <path
         id="path19"
         d="m 6600.91,0 -369.53,369.551 h 369.53 z"
         style="fill:#dd2233;fill-opacity:1;fill-rule:nonzero;stroke:none"
         transform="matrix(0.13333333,0,0,-0.13333333,0,542)" />
      <path
         id="path20"
         d="m 6970.49,1478.22 -369.55,369.55 h 369.55 z"
         style="fill:#dd2233;fill-opacity:1;fill-rule:nonzero;stroke:none"
         transform="matrix(0.13333333,0,0,-0.13333333,0,542)" />
      <path
         id="path21"
         d="M 6231.35,1108.66 6600.91,739.121 H 6231.35 Z"
         style="fill:#dd2233;fill-opacity:1;fill-rule:nonzero;stroke:none"
         transform="matrix(0.13333333,0,0,-0.13333333,0,542)" />
      <path
         id="path22"
         d="M 7584.4,1108.66 7953.96,739.121 H 7584.4 Z"
         style="fill:#dd2233;fill-opacity:1;fill-rule:nonzero;stroke:none"
         transform="matrix(0.13333333,0,0,-0.13333333,0,542)" />
      <path
         id="path23"
         d="m 7953.98,0 -369.55,369.551 h 369.55 z"
         style="fill:#dd2233;fill-opacity:1;fill-rule:nonzero;stroke:none"
         transform="matrix(0.13333333,0,0,-0.13333333,0,542)" />
      <path
         id="path24"
         d="m 7953.98,1847.77 369.53,-369.55 h -369.53 z"
         style="fill:#dd2233;fill-opacity:1;fill-rule:nonzero;stroke:none"
         transform="matrix(0.13333333,0,0,-0.13333333,0,542)" />
      <path
         id="path25"
         d="M 7953.98,1108.66 8323.51,739.121 H 7953.98 Z"
         style="fill:#dd2233;fill-opacity:1;fill-rule:nonzero;stroke:none"
         transform="matrix(0.13333333,0,0,-0.13333333,0,542)" />
      <path
         id="path26"
         d="M 74.2656,2586.8 443.816,2956.35 V 2586.8 Z"
         style="fill:#dd2233;fill-opacity:1;fill-rule:nonzero;stroke:none"
         transform="matrix(0.13333333,0,0,-0.13333333,0,542)" />
      <path
         id="path27"
         d="m 2194.21,3695.46 -369.55,369.55 h 369.55 z"
         style="fill:#dd2233;fill-opacity:1;fill-rule:nonzero;stroke:none"
         transform="matrix(0.13333333,0,0,-0.13333333,0,542)" />
      <path
         id="path28"
         d="m 2194.21,3325.91 369.55,369.55 v -369.55 z"
         style="fill:#dd2233;fill-opacity:1;fill-rule:nonzero;stroke:none"
         transform="matrix(0.13333333,0,0,-0.13333333,0,542)" />
      <path
         id="path29"
         d="m 5670.96,3695.46 369.55,369.55 v -369.55 z"
         style="fill:#dd2233;fill-opacity:1;fill-rule:nonzero;stroke:none"
         transform="matrix(0.13333333,0,0,-0.13333333,0,542)" />
      <path
         id="path30"
         d="M 813.371,4065.01 1182.92,3695.48 H 813.371 Z"
         style="fill:#dd2233;fill-opacity:1;fill-rule:nonzero;stroke:none"
         transform="matrix(0.13333333,0,0,-0.13333333,0,542)" />
      <path
         id="path31"
         d="M 74.2656,3325.91 443.816,2956.35 H 74.2656 Z"
         style="fill:#dd2233;fill-opacity:1;fill-rule:nonzero;stroke:none"
         transform="matrix(0.13333333,0,0,-0.13333333,0,542)" />
      <path
         id="path32"
         d="M 74.2656,2586.8 443.816,2217.25 H 74.2656 Z"
         style="fill:#dd2233;fill-opacity:1;fill-rule:nonzero;stroke:none"
         transform="matrix(0.13333333,0,0,-0.13333333,0,542)" />
      <path
         id="path33"
         d="m 1824.66,3695.46 -369.55,-369.55 v 369.55 z"
         style="fill:#dd2233;fill-opacity:1;fill-rule:nonzero;stroke:none"
         transform="matrix(0.13333333,0,0,-0.13333333,0,542)" />
      <path
         id="path34"
         d="m 1455.1,3325.91 369.55,-369.56 H 1455.1 Z"
         style="fill:#dd2233;fill-opacity:1;fill-rule:nonzero;stroke:none"
         transform="matrix(0.13333333,0,0,-0.13333333,0,542)" />
      <path
         id="path35"
         d="M 2563.77,2586.8 2194.22,2217.25 V 2586.8 Z"
         style="fill:#dd2233;fill-opacity:1;fill-rule:nonzero;stroke:none"
         transform="matrix(0.13333333,0,0,-0.13333333,0,542)" />
      <path
         id="path36"
         d="m 2885.39,3695.46 v -369.55 l 369.55,369.55 v 369.55 l -369.55,-369.55"
         style="fill:#dd2233;fill-opacity:1;fill-rule:nonzero;stroke:none"
         transform="matrix(0.13333333,0,0,-0.13333333,0,542)" />
      <path
         id="path37"
         d="m 2885.39,2956.35 369.55,-369.54 h -369.55 z"
         style="fill:#dd2233;fill-opacity:1;fill-rule:nonzero;stroke:none"
         transform="matrix(0.13333333,0,0,-0.13333333,0,542)" />
      <path
         id="path38"
         d="m 3994.07,3695.46 -369.55,-369.55 v 369.55 z"
         style="fill:#dd2233;fill-opacity:1;fill-rule:nonzero;stroke:none"
         transform="matrix(0.13333333,0,0,-0.13333333,0,542)" />
      <path
         id="path39"
         d="m 4733.18,3695.46 -369.55,-369.55 v 369.55 z"
         style="fill:#dd2233;fill-opacity:1;fill-rule:nonzero;stroke:none"
         transform="matrix(0.13333333,0,0,-0.13333333,0,542)" />
      <path
         id="path40"
         d="m 3994.07,2956.35 -369.55,-369.54 v 369.54 z"
         style="fill:#dd2233;fill-opacity:1;fill-rule:nonzero;stroke:none"
         transform="matrix(0.13333333,0,0,-0.13333333,0,542)" />
      <path
         id="path41"
         d="m 4363.63,3325.91 369.55,-369.56 h -369.55 z"
         style="fill:#dd2233;fill-opacity:1;fill-rule:nonzero;stroke:none"
         transform="matrix(0.13333333,0,0,-0.13333333,0,542)" />
      <path
         id="path42"
         d="m 4733.18,2217.24 369.55,369.55 v -369.55 z"
         style="fill:#dd2233;fill-opacity:1;fill-rule:nonzero;stroke:none"
         transform="matrix(0.13333333,0,0,-0.13333333,0,542)" />
      <path
         id="path43"
         d="m 5102.73,4065.01 369.56,-369.53 h -369.56 z"
         style="fill:#dd2233;fill-opacity:1;fill-rule:nonzero;stroke:none"
         transform="matrix(0.13333333,0,0,-0.13333333,0,542)" />
      <path
         id="path44"
         d="m 6040.51,2956.35 -369.55,-369.54 v 369.54 z"
         style="fill:#dd2233;fill-opacity:1;fill-rule:nonzero;stroke:none"
         transform="matrix(0.13333333,0,0,-0.13333333,0,542)" />
      <path
         id="path45"
         d="m 6040.51,3325.91 369.55,-369.56 h -369.55 z"
         style="fill:#dd2233;fill-opacity:1;fill-rule:nonzero;stroke:none"
         transform="matrix(0.13333333,0,0,-0.13333333,0,542)" />
      <path
         id="path46"
         d="m 7375.63,2217.24 -369.56,369.55 h 369.56 z"
         style="fill:#dd2233;fill-opacity:1;fill-rule:nonzero;stroke:none"
         transform="matrix(0.13333333,0,0,-0.13333333,0,542)" />
      <path
         id="path47"
         d="m 7375.63,4065.01 -369.56,-369.53 h 739.11 z"
         style="fill:#dd2233;fill-opacity:1;fill-rule:nonzero;stroke:none"
         transform="matrix(0.13333333,0,0,-0.13333333,0,542)" />
      <path
         id="path48"
         d="m 7745.18,3325.91 369.55,-369.56 h -369.55 z"
         style="fill:#dd2233;fill-opacity:1;fill-rule:nonzero;stroke:none"
         transform="matrix(0.13333333,0,0,-0.13333333,0,542)" />
      <path
         id="path49"
         d="m 7745.18,2586.8 369.55,369.55 V 2586.8 Z"
         style="fill:#dd2233;fill-opacity:1;fill-rule:nonzero;stroke:none"
         transform="matrix(0.13333333,0,0,-0.13333333,0,542)" />
      <path
         id="path50"
         d="m 8337.04,3325.91 369.55,-369.56 v 739.11 z"
         style="fill:#dd2233;fill-opacity:1;fill-rule:nonzero;stroke:none"
         transform="matrix(0.13333333,0,0,-0.13333333,0,542)" />
      <path
         id="path51"
         d="M 9630.45,2586.8 10000,2217.25 h -369.55 z"
         style="fill:#dd2233;fill-opacity:1;fill-rule:nonzero;stroke:none"
         transform="matrix(0.13333333,0,0,-0.13333333,0,542)" />
      <path
         id="path52"
         d="m 2194.21,2586.8 -369.55,369.55 h 369.55 z"
         style="fill:#dd2233;fill-opacity:1;fill-rule:nonzero;stroke:none"
         transform="matrix(0.13333333,0,0,-0.13333333,0,542)" />
      <path
         id="path53"
         d="m 5122.7,1847.77 v -369.55 h 369.55 V 369.582 H 5861.8 V 1478.22 l -369.55,369.55 H 5122.7"
         style="fill:#1d2c67;fill-opacity:1;fill-rule:nonzero;stroke:none"
         transform="matrix(0.13333333,0,0,-0.13333333,0,542)" />
      <path
         id="path54"
         d="m 3058.41,1847.77 -369.55,-369.55 v -369.54 l 369.55,369.54 v 369.55"
         style="fill:#1d2c67;fill-opacity:1;fill-rule:nonzero;stroke:none"
         transform="matrix(0.13333333,0,0,-0.13333333,0,542)" />
      <path
         id="path55"
         d="M 4753.14,739.109 H 5122.7 V 1478.21 L 4753.14,1108.66 V 739.109"
         style="fill:#1d2c67;fill-opacity:1;fill-rule:nonzero;stroke:none"
         transform="matrix(0.13333333,0,0,-0.13333333,0,542)" />
      <path
         id="path56"
         d="M 3058.41,739.109 V 1108.66 L 2688.86,739.109 v -369.55 l 369.55,369.55"
         style="fill:#1d2c67;fill-opacity:1;fill-rule:nonzero;stroke:none"
         transform="matrix(0.13333333,0,0,-0.13333333,0,542)" />
      <path
         id="path57"
         d="M 3058.41,369.551 H 2688.86 V 0 Z"
         style="fill:#1d2c67;fill-opacity:1;fill-rule:nonzero;stroke:none"
         transform="matrix(0.13333333,0,0,-0.13333333,0,542)" />
      <path
         id="path58"
         d="M 5122.7,0 V 739.102 L 4753.14,369.551 Z"
         style="fill:#1d2c67;fill-opacity:1;fill-rule:nonzero;stroke:none"
         transform="matrix(0.13333333,0,0,-0.13333333,0,542)" />
      <path
         id="path59"
         d="M 369.551,1847.77 0,1478.22 v -369.54 h 369.551 v 739.09"
         style="fill:#1d2c67;fill-opacity:1;fill-rule:nonzero;stroke:none"
         transform="matrix(0.13333333,0,0,-0.13333333,0,542)" />
      <path
         id="path60"
         d="M 369.543,739.09 H 739.09 v 369.55 H 369.543 V 739.09"
         style="fill:#1d2c67;fill-opacity:1;fill-rule:evenodd;stroke:none"
         transform="matrix(0.13333333,0,0,-0.13333333,0,542)" />
      <path
         id="path61"
         d="M 369.551,369.551 V 0 H 739.098 L 1108.56,369.551 V 739.102 H 739.098 V 369.551 H 369.551"
         style="fill:#1d2c67;fill-opacity:1;fill-rule:nonzero;stroke:none"
         transform="matrix(0.13333333,0,0,-0.13333333,0,542)" />
      <path
         id="path62"
         d="M 1108.58,1478.22 739.117,1847.77 H 369.566 l 369.551,-369.55 h 369.463"
         style="fill:#1d2c67;fill-opacity:1;fill-rule:nonzero;stroke:none"
         transform="matrix(0.13333333,0,0,-0.13333333,0,542)" />
      <path
         id="path63"
         d="m 1738.41,1847.77 -369.55,-369.55 v -369.54 l 369.55,-369.551 v 739.091 h 369.55 l -369.55,369.55"
         style="fill:#1d2c67;fill-opacity:1;fill-rule:nonzero;stroke:none"
         transform="matrix(0.13333333,0,0,-0.13333333,0,542)" />
      <path
         id="path64"
         d="M 1368.85,369.551 1738.4,0 h 369.55 V 369.551 H 1738.4 V 739.102 H 1368.85 V 369.551"
         style="fill:#1d2c67;fill-opacity:1;fill-rule:nonzero;stroke:none"
         transform="matrix(0.13333333,0,0,-0.13333333,0,542)" />
      <path
         id="path65"
         d="m 2107.96,1478.22 h 369.55 l -369.55,369.55 z"
         style="fill:#1d2c67;fill-opacity:1;fill-rule:nonzero;stroke:none"
         transform="matrix(0.13333333,0,0,-0.13333333,0,542)" />
      <path
         id="path66"
         d="m 3741.86,1847.77 -369.55,-369.55 h 739.1 v 369.55 h -369.55"
         style="fill:#1d2c67;fill-opacity:1;fill-rule:nonzero;stroke:none"
         transform="matrix(0.13333333,0,0,-0.13333333,0,542)" />
      <path
         id="path67"
         d="M 4111.41,1108.66 H 3741.86 L 4111.41,739.121 Z"
         style="fill:#1d2c67;fill-opacity:1;fill-rule:nonzero;stroke:none"
         transform="matrix(0.13333333,0,0,-0.13333333,0,542)" />
      <path
         id="path68"
         d="M 4111.41,369.551 3741.86,0 h 369.55 z"
         style="fill:#1d2c67;fill-opacity:1;fill-rule:nonzero;stroke:none"
         transform="matrix(0.13333333,0,0,-0.13333333,0,542)" />
      <path
         id="path69"
         d="M 3372.31,1108.66 V 369.559 L 3741.86,0.0117188 V 1478.21 l -369.55,-369.55"
         style="fill:#1d2c67;fill-opacity:1;fill-rule:nonzero;stroke:none"
         transform="matrix(0.13333333,0,0,-0.13333333,0,542)" />
      <path
         id="path70"
         d="M 6600.91,369.551 V 0 h 369.55 l 369.55,369.551 h -739.1"
         style="fill:#1d2c67;fill-opacity:1;fill-rule:nonzero;stroke:none"
         transform="matrix(0.13333333,0,0,-0.13333333,0,542)" />
      <path
         id="path71"
         d="m 7953.98,1847.77 369.53,-369.55 h 369.47 l -369.47,369.55 h -369.53"
         style="fill:#1d2c67;fill-opacity:1;fill-rule:nonzero;stroke:none"
         transform="matrix(0.13333333,0,0,-0.13333333,0,542)" />
      <path
         id="path72"
         d="M 8323.54,1108.66 H 7953.98 L 8323.54,739.121 Z"
         style="fill:#1d2c67;fill-opacity:1;fill-rule:nonzero;stroke:none"
         transform="matrix(0.13333333,0,0,-0.13333333,0,542)" />
      <path
         id="path73"
         d="M 7953.98,739.129 V 1847.77 l -369.55,-369.55 v -369.54 l 369.55,-369.551"
         style="fill:#1d2c67;fill-opacity:1;fill-rule:nonzero;stroke:none"
         transform="matrix(0.13333333,0,0,-0.13333333,0,542)" />
      <path
         id="path74"
         d="m 6231.33,369.539 h 369.55 V 739.09 H 6231.33 V 369.539"
         style="fill:#1d2c67;fill-opacity:1;fill-rule:evenodd;stroke:none"
         transform="matrix(0.13333333,0,0,-0.13333333,0,542)" />
      <path
         id="path75"
         d="m 6600.91,1847.77 -369.53,-369.55 v -369.54 l 369.53,-369.551 v 739.091 h 369.55 l -369.55,369.55"
         style="fill:#1d2c67;fill-opacity:1;fill-rule:nonzero;stroke:none"
         transform="matrix(0.13333333,0,0,-0.13333333,0,542)" />
      <path
         id="path76"
         d="m 6970.49,1478.22 h 369.55 l -369.55,369.55 z"
         style="fill:#1d2c67;fill-opacity:1;fill-rule:nonzero;stroke:none"
         transform="matrix(0.13333333,0,0,-0.13333333,0,542)" />
      <path
         id="path77"
         d="m 7584.4,369.539 h 369.55 V 739.09 H 7584.4 V 369.539"
         style="fill:#1d2c67;fill-opacity:1;fill-rule:evenodd;stroke:none"
         transform="matrix(0.13333333,0,0,-0.13333333,0,542)" />
      <path
         id="path78"
         d="M 7953.98,369.551 V 0 h 369.53 l 369.47,369.551 h -739"
         style="fill:#1d2c67;fill-opacity:1;fill-rule:nonzero;stroke:none"
         transform="matrix(0.13333333,0,0,-0.13333333,0,542)" />
      <path
         id="path79"
         d="m 4733.18,2586.8 v 369.55 H 4363.63 V 2586.8 l 369.55,-369.55 369.55,369.55 h -369.55"
         style="fill:#1d2c67;fill-opacity:1;fill-rule:nonzero;stroke:none"
         transform="matrix(0.13333333,0,0,-0.13333333,0,542)" />
      <path
         id="path80"
         d="M 443.816,2586.8 H 74.2656 L 443.816,2217.25 Z"
         style="fill:#1d2c67;fill-opacity:1;fill-rule:nonzero;stroke:none"
         transform="matrix(0.13333333,0,0,-0.13333333,0,542)" />
      <path
         id="path81"
         d="m 2563.77,2217.24 v 369.55 l -369.55,-369.55 z"
         style="fill:#1d2c67;fill-opacity:1;fill-rule:nonzero;stroke:none"
         transform="matrix(0.13333333,0,0,-0.13333333,0,542)" />
      <path
         id="path82"
         d="m 3254.97,2586.81 v 1108.65 l -369.55,-369.55 v -369.56 l 369.55,-369.54"
         style="fill:#1d2c67;fill-opacity:1;fill-rule:nonzero;stroke:none"
         transform="matrix(0.13333333,0,0,-0.13333333,0,542)" />
      <path
         id="path83"
         d="m 3994.07,2586.8 v 369.55 L 3624.52,2586.8 h -739.1 l 369.55,-369.55 h 369.55 l 369.55,369.55"
         style="fill:#1d2c67;fill-opacity:1;fill-rule:nonzero;stroke:none"
         transform="matrix(0.13333333,0,0,-0.13333333,0,542)" />
      <path
         id="path84"
         d="m 4733.18,2956.35 v 739.11 l -369.55,-369.55 z"
         style="fill:#1d2c67;fill-opacity:1;fill-rule:nonzero;stroke:none"
         transform="matrix(0.13333333,0,0,-0.13333333,0,542)" />
      <path
         id="path85"
         d="m 5102.73,4065.01 h -369.55 l -369.55,-369.53 h 739.1 v 369.53"
         style="fill:#1d2c67;fill-opacity:1;fill-rule:nonzero;stroke:none"
         transform="matrix(0.13333333,0,0,-0.13333333,0,542)" />
      <path
         id="path86"
         d="M 5472.29,2586.8 H 5102.73 V 2217.25 Z"
         style="fill:#1d2c67;fill-opacity:1;fill-rule:nonzero;stroke:none"
         transform="matrix(0.13333333,0,0,-0.13333333,0,542)" />
      <path
         id="path87"
         d="m 6040.51,3695.46 h -369.55 v -739.08 h 369.55 v 739.08"
         style="fill:#1d2c67;fill-opacity:1;fill-rule:nonzero;stroke:none"
         transform="matrix(0.13333333,0,0,-0.13333333,0,542)" />
      <path
         id="path88"
         d="m 6410.06,3325.91 h -369.55 l 369.55,-369.56 z"
         style="fill:#1d2c67;fill-opacity:1;fill-rule:nonzero;stroke:none"
         transform="matrix(0.13333333,0,0,-0.13333333,0,542)" />
      <path
         id="path89"
         d="M 813.371,3325.91 H 443.824 v 369.55 h 369.547 v 369.55 H 74.2734 v -739.1 L 443.824,2956.35 H 74.2734 V 2586.9 l 369.5506,369.45 h 369.547 l 369.549,369.56 v 369.55 H 813.371 v -369.55"
         style="fill:#1d2c67;fill-opacity:1;fill-rule:nonzero;stroke:none"
         transform="matrix(0.13333333,0,0,-0.13333333,0,542)" />
      <path
         id="path90"
         d="m 1455.1,2956.35 v -739.1 h 369.55 v 739.1 h 369.55 l 369.55,369.56 H 2194.2 L 1824.65,2956.35 H 1455.1"
         style="fill:#1d2c67;fill-opacity:1;fill-rule:nonzero;stroke:none"
         transform="matrix(0.13333333,0,0,-0.13333333,0,542)" />
      <path
         id="path91"
         d="m 2563.68,3695.46 -369.46,369.55 v -369.55 l -369.55,369.55 h -369.55 v -369.55 h 369.55 l -369.55,-369.55 369.55,-369.53 v 739.08 h 369.55 v -369.55 l 369.46,369.55 h 0.09 -0.09"
         style="fill:#1d2c67;fill-opacity:1;fill-rule:nonzero;stroke:none"
         transform="matrix(0.13333333,0,0,-0.13333333,0,542)" />
      <path
         id="path92"
         d="m 3994.07,3695.46 -369.55,369.55 h -369.55 v -369.55 h 739.1"
         style="fill:#1d2c67;fill-opacity:1;fill-rule:nonzero;stroke:none"
         transform="matrix(0.13333333,0,0,-0.13333333,0,542)" />
      <path
         id="path93"
         d="m 3624.49,2956.35 h 369.56 v 739.11 l -369.56,-369.55 v -369.56"
         style="fill:#1d2c67;fill-opacity:1;fill-rule:nonzero;stroke:none"
         transform="matrix(0.13333333,0,0,-0.13333333,0,542)" />
      <path
         id="path94"
         d="m 6779.53,3695.46 -369.47,369.55 h -369.52 v -369.55 h 738.99"
         style="fill:#1d2c67;fill-opacity:1;fill-rule:nonzero;stroke:none"
         transform="matrix(0.13333333,0,0,-0.13333333,0,542)" />
      <path
         id="path95"
         d="m 6779.53,2586.8 h -738.99 v 369.55 l -369.56,-369.55 369.56,-369.55 h 369.52 l 369.47,369.55"
         style="fill:#1d2c67;fill-opacity:1;fill-rule:nonzero;stroke:none"
         transform="matrix(0.13333333,0,0,-0.13333333,0,542)" />
      <path
         id="path96"
         d="m 7375.63,2217.24 h 369.55 l 369.47,369.55 h -739.02 v -369.55"
         style="fill:#1d2c67;fill-opacity:1;fill-rule:nonzero;stroke:none"
         transform="matrix(0.13333333,0,0,-0.13333333,0,542)" />
      <path
         id="path97"
         d="m 7375.63,3325.91 v 369.55 h -369.56 v -369.55 l 369.56,-369.56 h 369.55 v 369.56 h -369.55"
         style="fill:#1d2c67;fill-opacity:1;fill-rule:nonzero;stroke:none"
         transform="matrix(0.13333333,0,0,-0.13333333,0,542)" />
      <path
         id="path98"
         d="m 8114.68,3695.46 -369.47,369.55 h -369.56 l 369.56,-369.55 h 369.47"
         style="fill:#1d2c67;fill-opacity:1;fill-rule:nonzero;stroke:none"
         transform="matrix(0.13333333,0,0,-0.13333333,0,542)" />
      <path
         id="path99"
         d="M 8114.68,2956.35 H 7745.21 V 2586.81 Z"
         style="fill:#1d2c67;fill-opacity:1;fill-rule:nonzero;stroke:none"
         transform="matrix(0.13333333,0,0,-0.13333333,0,542)" />
      <path
         id="path100"
         d="m 8706.59,4065.01 -369.55,-369.53 v -369.55 l 369.55,369.55 h 739.03 l -369.47,369.53 h -369.56"
         style="fill:#1d2c67;fill-opacity:1;fill-rule:nonzero;stroke:none"
         transform="matrix(0.13333333,0,0,-0.13333333,0,542)" />
      <path
         id="path101"
         d="m 8706.59,3325.91 v -369.56 h 369.56 v -369.54 h -739.11 l 369.55,-369.55 h 369.56 l 369.47,369.55 v 369.54 l -369.47,369.56 h -369.56"
         style="fill:#1d2c67;fill-opacity:1;fill-rule:nonzero;stroke:none"
         transform="matrix(0.13333333,0,0,-0.13333333,0,542)" />
      <path
         id="path102"
         d="M 9630.45,2586.8 10000,2217.25 v 369.55 z"
         style="fill:#1d2c67;fill-opacity:1;fill-rule:nonzero;stroke:none"
         transform="matrix(0.13333333,0,0,-0.13333333,0,542)" />
      <path
         id="path103"
         d="m 2563.77,2586.8 -369.55,369.55 V 2586.8 Z"
         style="fill:#1d2c67;fill-opacity:1;fill-rule:nonzero;stroke:none"
         transform="matrix(0.13333333,0,0,-0.13333333,0,542)" />
    </g>
  </g>
</svg>
