<?xml version="1.0" encoding="UTF-8" standalone="no"?>
<!-- Created with Inkscape (http://www.inkscape.org/) -->

<svg
   version="1.1"
   id="svg1"
   width="1447.9733"
   height="266.66666"
   viewBox="0 0 1447.9733 266.66666"
   sodipodi:docname="SAP_Signavio_R_grad_blk.eps"
   xmlns:inkscape="http://www.inkscape.org/namespaces/inkscape"
   xmlns:sodipodi="http://sodipodi.sourceforge.net/DTD/sodipodi-0.dtd"
   xmlns="http://www.w3.org/2000/svg"
   xmlns:svg="http://www.w3.org/2000/svg">
  <defs
     id="defs1">
    <linearGradient
       x1="0"
       y1="0"
       x2="1"
       y2="0"
       gradientUnits="userSpaceOnUse"
       gradientTransform="matrix(0,-2000,-2000,0,2021.43,2000)"
       spreadMethod="pad"
       id="linearGradient3">
      <stop
         style="stop-opacity:1;stop-color:#55bced"
         offset="0"
         id="stop2" />
      <stop
         style="stop-opacity:1;stop-color:#395ab1"
         offset="1"
         id="stop3" />
    </linearGradient>
  </defs>
  <sodipodi:namedview
     id="namedview1"
     pagecolor="#ffffff"
     bordercolor="#000000"
     borderopacity="0.25"
     inkscape:showpageshadow="2"
     inkscape:pageopacity="0.0"
     inkscape:pagecheckerboard="0"
     inkscape:deskcolor="#d1d1d1">
    <inkscape:page
       x="0"
       y="0"
       inkscape:label="1"
       id="page1"
       width="1447.9733"
       height="266.66666"
       margin="0"
       bleed="0" />
  </sodipodi:namedview>
  <g
     id="g1"
     inkscape:groupmode="layer"
     inkscape:label="1">
    <g
       id="group-R5">
      <path
         id="path2"
         d="M 0,0 H 2043.21 L 4042.85,2000 H 0 V 0"
         style="fill:url(#linearGradient3);fill-opacity:1;fill-rule:evenodd;stroke:none"
         transform="matrix(0.13333333,0,0,-0.13333333,0,266.66667)" />
      <path
         id="path3"
         d="m 2422.6,1042.95 h -87.66 v 320.68 h 87.66 c 116.9,0 210.12,-38.83 210.12,-158.22 0,-123.56 -93.22,-162.46 -210.12,-162.46 M 1479.48,814.328 c -46.43,0 -89.97,8.043 -127.51,22.231 l 126.11,397.991 h 2.42 l 123.92,-399.089 c -37.25,-13.231 -79.76,-21.133 -124.94,-21.133 z m 919.72,809.622 -397.92,0.25 V 677.969 L 1653.63,1624.2 H 1308.94 L 1012.1,832.898 C 980.48,1032.39 774.078,1101.3 611.699,1152.96 c -107.219,34.43 -220.988,85.06 -219.926,141.03 0.879,45.95 61.012,88.64 180.188,82.21 80.094,-4.24 150.684,-10.71 291.25,-78.48 l 138.249,240.76 C 873.152,1603.73 695.887,1645 550.652,1645.15 h -0.847 c -169.403,0 -310.543,-54.87 -398.063,-145.31 C 90.7695,1436.67 57.9023,1356.42 56.5469,1267.7 54.3242,1145.6 99.1016,1058.96 193.16,989.871 272.637,931.602 374.227,893.879 463.789,866.09 574.301,831.879 664.449,802.121 663.387,738.59 662.586,715.559 653.813,693.988 637.215,676.512 609.684,648.07 567.391,637.391 508.934,636.379 396.238,633.961 312.594,651.582 179.449,730.25 L 56.5469,486.199 C 189.324,410.602 346.594,366.289 507.035,366.289 l 20.656,0.301 c 139.68,2.492 252.387,42.25 342.422,114.789 5.196,4.082 9.836,8.332 14.59,12.57 L 844.785,387.352 h 361.505 l 60.68,184.468 c 63.5,-21.718 135.77,-33.711 212.51,-33.711 74.68,0 145.05,11.481 207.42,31.871 l 58.45,-182.628 h 589.59 v 381.949 h 128.6 c 310.73,0 494.61,158.359 494.61,423.579 0,295.48 -178.62,431.07 -558.95,431.07"
         style="fill:#ffffff;fill-opacity:1;fill-rule:evenodd;stroke:none"
         transform="matrix(0.13333333,0,0,-0.13333333,0,266.66667)" />
      <path
         id="path4"
         d="m 3896.67,584.809 150.19,151.05 c 75.95,-98.929 181.97,-165.199 356.87,-165.199 143.11,0 251.77,47.711 251.77,164.32 0,122.782 -125.43,158.129 -295.04,199.641 -195.23,46.828 -407.26,111.309 -407.26,371.019 0,244.71 200.53,351.6 458.47,351.6 203.18,0 349.84,-67.15 446.15,-179.34 l -145.78,-145.76 c -76.84,87.46 -172.26,135.17 -308.31,135.17 -153.7,0 -219.97,-63.6 -219.97,-148.4 0,-112.2 113.96,-142.23 271.19,-182 209.38,-49.45 431.99,-108.66 431.99,-384.25 0,-223.5 -166.96,-376.34 -487.62,-376.34 -234.98,0 -401.06,78.621 -502.65,208.489"
         style="fill:#100f0d;fill-opacity:1;fill-rule:nonzero;stroke:none"
         transform="matrix(0.13333333,0,0,-0.13333333,0,266.66667)" />
      <path
         id="path5"
         d="m 5080.63,1360.41 h 223.5 V 393.988 h -223.5 z m -22.07,269.45 c 0,77.72 55.66,131.61 133.38,131.61 77.72,0 134.25,-53.89 134.25,-131.61 0,-77.75 -56.53,-130.75 -134.25,-130.75 -77.72,0 -133.38,53 -133.38,130.75"
         style="fill:#100f0d;fill-opacity:1;fill-rule:nonzero;stroke:none"
         transform="matrix(0.13333333,0,0,-0.13333333,0,266.66667)" />
      <path
         id="path6"
         d="m 6090.69,1040.64 c 0,112.18 -65.41,181.96 -174.95,181.96 -112.2,0 -180.21,-69.78 -180.21,-181.96 0,-117.492 71.59,-176.679 174.03,-176.679 111.31,0 181.13,70.66 181.13,176.679 z m -165.2,-879.859 c 174.03,0 257.92,36.219 257.92,133.379 0,82.16 -70.65,98.949 -249.09,106.891 -74.24,4.418 -144.9,8.847 -205.85,20.328 -33.54,-28.27 -55.65,-66.25 -55.65,-118.367 0,-98.071 65.36,-142.231 252.67,-142.231 z m -454.94,79.508 c 0,101.582 72.42,174.031 178.44,202.301 -68.9,25.621 -112.19,68.012 -112.19,141.34 0,79.511 50.35,140.461 142.2,174.902 -104.25,55.656 -159.91,154.59 -159.91,281.808 0,183.73 121.07,338.33 394.88,338.33 100.72,0 179.37,-20.32 239.44,-53.88 30.89,112.18 93.6,184.61 216.38,184.61 h 30.95 v -194.32 h -32.71 c -85.66,0 -125.43,-10.62 -157.2,-32.71 66.24,-61.83 96.25,-148.4 96.25,-242.03 0,-179.32 -126.31,-333.05 -396.64,-333.05 -62.72,0 -118.37,7.949 -166.96,23.859 -13.24,-15.027 -22.07,-32.679 -22.07,-53.008 0,-66.242 75.07,-75.98 244.68,-84.8 242.97,-11.481 440.82,-46.832 440.82,-275.629 C 6406.91,107.781 6252.31,0 5913.97,0 5595.98,0 5470.55,98.0703 5470.55,240.289"
         style="fill:#100f0d;fill-opacity:1;fill-rule:nonzero;stroke:none"
         transform="matrix(0.13333333,0,0,-0.13333333,0,266.66667)" />
      <path
         id="path7"
         d="m 6518.66,1360.41 h 216.44 v -203.17 h 3.53 c 44.18,110.42 132.49,221.73 317.16,221.73 207.56,0 300.33,-141.34 300.33,-347.16 V 393.988 h -223.49 v 583.934 c 0,129.838 -45.07,208.468 -174.91,208.468 -133.42,0 -215.56,-88.34 -215.56,-250.878 V 393.988 h -223.5 v 966.422"
         style="fill:#100f0d;fill-opacity:1;fill-rule:nonzero;stroke:none"
         transform="matrix(0.13333333,0,0,-0.13333333,0,266.66667)" />
      <path
         id="path8"
         d="m 7891.02,548.57 c 143.96,0 227.03,108.66 227.03,222.621 v 62.739 h -136.96 c -128.07,0 -235.85,-34.469 -235.85,-155.489 0,-80.39 54.77,-129.871 145.78,-129.871 z m -368.37,108.66 c 0,207.622 169.58,304.782 420.49,304.782 h 174.91 v 55.648 c 0,116.61 -56.54,180.2 -174.03,180.2 -109.54,0 -186.43,-46.8 -246.49,-122.78 l -133.38,132.52 c 89.2,97.16 210.26,171.37 403.7,171.37 245.57,0 372.81,-128.1 372.81,-362.19 V 393.988 h -215.55 v 179.321 h -5.3 C 8060.63,438.172 7963.44,376.32 7811.48,376.32 c -168.72,0 -288.83,100.711 -288.83,280.91"
         style="fill:#100f0d;fill-opacity:1;fill-rule:nonzero;stroke:none"
         transform="matrix(0.13333333,0,0,-0.13333333,0,266.66667)" />
      <path
         id="path9"
         d="m 8429.47,1360.41 h 238.5 l 174.02,-564.48 c 19.47,-63.598 44.18,-151.942 58.3,-208.469 13.29,56.527 41.54,144.871 60.96,208.469 l 181.13,564.48 H 9380 L 9035.48,393.988 h -273.85 l -332.16,966.422"
         style="fill:#100f0d;fill-opacity:1;fill-rule:nonzero;stroke:none"
         transform="matrix(0.13333333,0,0,-0.13333333,0,266.66667)" />
      <path
         id="path10"
         d="m 9488.22,1360.41 h 223.5 V 393.988 h -223.5 z m -22.07,269.45 c 0,77.72 55.66,131.61 133.38,131.61 77.72,0 134.25,-53.89 134.25,-131.61 0,-77.75 -56.53,-130.75 -134.25,-130.75 -77.72,0 -133.38,53 -133.38,130.75"
         style="fill:#100f0d;fill-opacity:1;fill-rule:nonzero;stroke:none"
         transform="matrix(0.13333333,0,0,-0.13333333,0,266.66667)" />
      <path
         id="path11"
         d="m 10625.7,877.199 c 0,208.471 -107.8,319.781 -257.9,319.781 -150.2,0 -258,-111.31 -258,-319.781 0,-207.578 107.8,-319.777 258,-319.777 150.1,0 257.9,112.199 257.9,319.777 z m -749.96,0 c 0,304.781 203.16,501.771 492.06,501.771 288.9,0 492,-196.99 492,-501.771 0,-304.769 -203.1,-500.879 -492,-500.879 -288.9,0 -492.06,196.11 -492.06,500.879"
         style="fill:#100f0d;fill-opacity:1;fill-rule:nonzero;stroke:none"
         transform="matrix(0.13333333,0,0,-0.13333333,0,266.66667)" />
    </g>
  </g>
</svg>
