<svg xmlns="http://www.w3.org/2000/svg" width="198.4" height="40" viewBox="0 0 198.4 40"><path d="M492.449,6.551A7,7,0,0,0,485.475,0H472.437A13.452,13.452,0,0,0,459,13.436V26.475a7,7,0,0,0,6.551,6.974A7,7,0,0,0,472.525,40h13.038A13.452,13.452,0,0,0,499,26.564V13.525a7,7,0,0,0-6.551-6.974Zm-.764.764V32.683H466.317V7.317" transform="translate(-377.4)" fill="#be1e2e"/><g transform="translate(43.2 8)"><path d="M261,48.2h25.6V45H264.2A3.2,3.2,0,0,0,261,48.2Z" transform="translate(-257.8 -45)" fill="#be1e2e"/><path d="M243,66.2v16a3.2,3.2,0,0,0,3.2,3.2h22.4a3.2,3.2,0,0,0,3.2-3.2H246.2V63A3.2,3.2,0,0,0,243,66.2Z" transform="translate(-243 -59.8)" fill="#be1e2e"/></g><path d="M979.6,59.4h.635a2.565,2.565,0,0,0,2.565-2.565V47.565A2.565,2.565,0,0,0,980.235,45H960.194a2.994,2.994,0,0,0-2.994,2.994V48.2h22.4v8H957.2v-8a3.2,3.2,0,0,0-3.2,3.2v16a3.2,3.2,0,0,0,3.2,3.2h22.4a3.2,3.2,0,0,0,3.2-3.2H957.2v-8Z" transform="translate(-784.4 -37)" fill="#be1e2e"/><g transform="translate(0 8)"><path d="M43.6,45H21.2A3.2,3.2,0,0,0,18,48.2H43.6Z" transform="translate(-14.8 -45)" fill="#be1e2e"/><path d="M27.2,71H3.2V63A3.2,3.2,0,0,0,0,66.2V71a3.2,3.2,0,0,0,3.2,3.2h24v8h0A3.2,3.2,0,0,0,30.4,79V74.2A3.2,3.2,0,0,0,27.2,71Z" transform="translate(0 -59.8)" fill="#be1e2e"/><path d="M9,174.2H31.4a3.2,3.2,0,0,0,3.2-3.2H9Z" transform="translate(-7.4 -148.6)" fill="#be1e2e"/></g><path d="M760.4,59.4h.635a2.565,2.565,0,0,0,2.565-2.565V47.565A2.565,2.565,0,0,0,761.035,45H743.972a2.772,2.772,0,0,0-2.772,2.772V48.2h19.2v8H741.2v-8a3.2,3.2,0,0,0-3.2,3.2v16a3.2,3.2,0,0,0,3.2,3.2V59.4h11.2L762,70.6h4.8l-9.6-11.2Z" transform="translate(-606.8 -37)" fill="#be1e2e"/></svg>