<?xml version="1.0" encoding="utf-8"?>
<!-- Generator: $$$/GeneralStr/196=Adobe Illustrator 27.6.0, SVG Export Plug-In . SVG Version: 6.00 Build 0)  -->
<svg version="1.1" id="Capa_1" xmlns="http://www.w3.org/2000/svg" xmlns:xlink="http://www.w3.org/1999/xlink" x="0px" y="0px"
	 viewBox="0 0 1303.3 552" style="enable-background:new 0 0 1303.3 552;" xml:space="preserve">
<style type="text/css">
	.st0{fill:#020659;}
	.st1{fill:#91F2CF;}
</style>
<path class="st0" d="M912,29.8v164.9h-97.8V29.8h-40.5v164.9c0,20.4,16.5,36.9,36.9,36.9h104.8c20.4,0,36.9-16.5,36.9-36.9V29.8
	h-40.5l0,0H912z"/>
<path class="st0" d="M1020.3,29.8c-22.4,0-40.8,18.1-40.8,40.4v161.4h40.8V66.7h89.5V29.8H1020.3L1020.3,29.8z"/>
<path class="st0" d="M709.8,29.8H579.4v36.9h126.8v45.5h-110c-20.8,0-37.3,16.5-37.3,36.9v45.6c0,20.4,16.5,36.9,37.3,36.9h150.4
	V66.7c0-20.4-16.5-36.9-36.9-36.9 M695.9,194.8h-96v-45.6h106.4v45.6L695.9,194.8L695.9,194.8z"/>
<path class="st0" d="M1266.4,29.8H1136v36.9h126.8v45.5h-109.9c-20.8,0-37.3,16.5-37.3,36.9v45.6c0,20.4,16.5,36.9,37.3,36.9h150.4
	v-36.9l0,0v-128C1303.3,46.3,1286.8,29.8,1266.4,29.8 M1252.4,194.8h-96v-45.6h106.4v45.6L1252.4,194.8L1252.4,194.8z"/>
<rect x="1167.8" y="297.1" class="st0" width="24.5" height="117.9"/>
<rect x="1167" y="259.9" class="st0" width="26.1" height="24.8"/>
<path class="st0" d="M791,297.3v92.5h-60.7v-92.5h-26.4v95c0,13,10.6,23.6,23.6,23.6h66c13,0,23.6-10.6,23.6-23.6v-95h-26.2H791z"/>
<path class="st0" d="M1049,297.1h-90.2V416h26.4v-92.5h61.1V416h26.4v-95.1C1072.7,307.8,1062.1,297.1,1049,297.1L1049,297.1
	L1049,297.1z"/>
<path class="st0" d="M1236.8,339.6v-16.1h66.5v-26.4h-68.1c-13.7,0-24.8,11.1-24.8,24.8v69.3c0,13.7,11.1,24.8,24.8,24.8h68.1v-26.2
	h-66.5V339.6L1236.8,339.6L1236.8,339.6z"/>
<path class="st0" d="M1115.6,321.8h33.3V297h-33.3v-35h-26.4v129.1c0,13.7,11.1,24.8,24.8,24.8h34.9v-26.2h-33.3V321.8z"/>
<path class="st0" d="M917.5,297.1h-75.6v26h72.8v20.8h-61.4c-13,0-23.6,10.6-23.6,23.6v24.9c0,13,10.6,23.6,23.6,23.6h87.8v-78.8
	l0,0v-16.5C941.1,307.7,930.5,297.1,917.5,297.1L917.5,297.1z M914.8,375.5v16.1h-59.3v-10.8l0,0v-5l0,0v-8.5h59.3V375.5
	L914.8,375.5L914.8,375.5z"/>
<path class="st0" d="M666.3,297.3h-83.4c-13.1,0-23.7,10.6-23.7,23.7v71.7c0,13.1,10.5,23.7,23.6,23.7h28.7v15.2h26.3v-15.2h28.5
	c13.1,0,23.7-10.6,23.7-23.7V321C690,307.9,679.5,297.3,666.3,297.3L666.3,297.3L666.3,297.3z M663.7,390.2h-25.9v-22.4h-26.3v22.4
	h-25.9v-66.6c-0.1,0,78,0,78,0v66.6H663.7z"/>
<polyline class="st1" points="446.4,0 0,0 0,446.4 446.4,446.4 446.4,0 "/>
<path class="st0" d="M297.9,172h56.5v-46.1c0-28.5-23.1-51.6-51.6-51.6H120.6v51.6h177.3V172L297.9,172z"/>
<path class="st0" d="M145.2,189.6c-29.1,0-52.1,23.1-52.1,51.6v63.7c0,28.5,23.1,51.6,52.1,51.6H196v33.3h57.1v-33.3h50.8
	c28.5,0,51.6-23.1,51.6-51.6V189.6H145.2z M298.9,304.9h-45.8v-31.8H196v31.8h-45.8v-63.7h148.7V304.9L298.9,304.9z"/>
</svg>
