<?xml version="1.0" encoding="utf-8"?>
<!-- Generator: Adobe Illustrator 23.0.1, SVG Export Plug-In . SVG Version: 6.00 Build 0)  -->
<svg version="1.1" id="Ebene_1" xmlns="http://www.w3.org/2000/svg" xmlns:xlink="http://www.w3.org/1999/xlink" x="0px" y="0px"
	 viewBox="0 0 829.7 322.1" style="enable-background:new 0 0 829.7 322.1;" xml:space="preserve">
<style type="text/css">
	.st0{fill-rule:evenodd;clip-rule:evenodd;fill:#004878;}
	.st1{fill-rule:evenodd;clip-rule:evenodd;}
</style>
<path class="st0" d="M78.6,276.1h144.3v-46h49.9v92H78.6C33.7,322.1,0,303,0,248.2V74C0,19.2,33.7,0,78.6,0h194.2v46H78.6
	c-20,0-28.8,5.7-28.8,26.1v178C49.8,270.4,58.7,276.1,78.6,276.1z M132.5,138.2h364c18,0,26.8-5.8,26.8-26.1v-40
	c0-20.3-8.8-26.1-28.8-26.1h-172V0h172c44.9,0,78.6,19.2,78.6,74v38.1c0,21.9-6.5,36.4-26.1,47.9c19.2,11.5,28,28.8,28,50.2v37.9
	c0,54.8-39.9,74-78.6,74H322.6v-46h173.9c16.1,0,28.7-5.7,28.7-26.1v-39.8c0-19.2-14.6-25.3-27.2-26.1H132.5V138.2z"/>
<path class="st1" d="M646.4,54.4h18.9v83.8h10V54.4h18.9V46h-47.8V54.4z M713.8,138.2h43.7v-8.4h-33.7V94.3h23.7v-8.4h-23.7V54.4
	h32.2V46h-42.1V138.2z M804.9,44.7c-16.5,0-26.8,12.5-26.8,47.4c0,34.8,10.2,47.4,26.7,47.4c15.7,0,24.6-11.5,24.9-31.9h-9.9
	c-0.2,17.1-5.6,23.5-14.9,23.5c-11.6,0-16.7-10.2-16.7-38.9c0-28.7,5.1-38.9,16.7-38.9c7.8,0,12.4,6.1,13.7,20.7h9.9
	C826.9,54.2,818.6,44.7,804.9,44.7z"/>
</svg>
