<?xml version="1.0" encoding="UTF-8"?><svg id="Camada_1" xmlns="http://www.w3.org/2000/svg" viewBox="0 0 500.02 163.24"><defs><style>.cls-1,.cls-2{fill-rule:evenodd;}.cls-1,.cls-3{fill:#b7b9b9;}.cls-2,.cls-4{fill:#1b3457;}</style></defs><g><path class="cls-3" d="m233.83,130.74c-1.25.99-2.68,1.69-4.32,1.69-1.9,0-2.72-.85-2.72-2.76v-14.24h-6.89v14.24c0,5.54,2.71,8.66,8.3,8.66,2.48,0,4.63-.88,6.47-2.41l.51,2.41h5.53v-22.9h-6.89v15.31Z"/><rect class="cls-3" x="209.27" y="109.08" width="6.89" height="29.25"/><g><rect class="cls-3" x="259.94" y="115.35" width="6.89" height="22.98"/><path class="cls-3" d="m259.94,106.96v5.64h6.89v-5.57c-2.51-.41-4.92-.33-6.89-.07Z"/></g><path class="cls-3" d="m168.61,120.61h-5.73c-1.71,0-2.56-.83-2.56-2.48v-.82c0-1.65.85-2.47,2.56-2.47h13.28v-5.77h-14.99c-2.99,0-5.16.65-6.51,1.96-1.35,1.31-2.03,3.4-2.03,6.29v1.24c0,2.89.68,4.98,2.03,6.29,1.35,1.31,3.52,1.96,6.51,1.96h3.39s0,0,0,0h2.34c1.71,0,2.56.82,2.56,2.47v.82c0,1.65-1.18,2.28-2.56,2.2h-13.28v6.04h14.99c2.99,0,5.16-.65,6.51-1.96,1.35-1.3,2.03-3.4,2.03-6.28v-1.24c0-2.88-.68-4.98-2.03-6.28-1.35-1.3-3.52-1.96-6.51-1.96Z"/><path class="cls-1" d="m305.05,117.77c1.86-1.54,4.04-2.42,6.55-2.42,5.65,0,8.39,3.13,8.39,8.69v14.29h-6.97v-14.29c0-1.92-.83-2.77-2.75-2.77-1.65,0-3.1.7-4.36,1.69v15.36h-6.97v-22.98h5.59l.52,2.42Z"/><path class="cls-1" d="m250.64,115.36h5.55v5.83h-4.8v9.08c0,1.34.37,2.22,1.82,2.22h2.98v5.84h-5.59c-4.2,0-6.17-2.47-6.17-6.55v-19.88h5.39l.82,3.47Z"/><path class="cls-1" d="m285.83,114.8c-.72-.08-1.39-.12-2.05-.15v-.03c-.14,0-.29,0-.44,0-.17,0-.33,0-.5,0-.29,0-.58,0-.87,0v.03c-.29,0-.58.02-.85.04-.48.04-.95.09-1.4.16-5.68.85-9.16,4.31-9.16,11.21s3.25,11.42,9.36,12.08c.72.08,1.39.12,2.05.15v.03c.14,0,.29,0,.44,0,.17,0,.33,0,.5,0,.29,0,.58,0,.87,0v-.03c.29,0,.58-.02.85-.04.48-.04.95-.09,1.4-.16,5.68-.85,9.16-4.31,9.16-11.21s-3.25-11.42-9.36-12.08Zm-.3,17.01c-1.1.45-1.95.44-3.09.44h-.35c-.42-.04-.83-.12-1.26-.26-2.33-.75-3.31-2.79-3.31-5.93,0-2.65.94-4.21,2.7-4.92,1.1-.45,1.95-.44,3.09-.44h.35c.42.04.83.12,1.26.26,2.33.75,3.31,2.79,3.31,5.93,0,2.65-.94,4.21-2.7,4.92Z"/><path class="cls-1" d="m196.15,114.8c-.72-.08-1.39-.12-2.05-.15v-.03c-.14,0-.29,0-.44,0-.17,0-.33,0-.5,0-.29,0-.58,0-.87,0v.03c-.29,0-.58.02-.85.04-.48.04-.95.09-1.4.16-5.68.85-9.16,4.31-9.16,11.21s3.25,11.42,9.36,12.08c.72.08,1.39.12,2.05.15v.03c.14,0,.29,0,.44,0,.17,0,.33,0,.5,0,.29,0,.58,0,.87,0v-.03c.29,0,.58-.02.85-.04.48-.04.95-.09,1.4-.16,5.68-.85,9.16-4.31,9.16-11.21s-3.25-11.42-9.36-12.08Zm-.3,17.01c-1.1.45-1.95.44-3.09.44h-.35c-.42-.04-.83-.12-1.26-.26-2.33-.75-3.31-2.79-3.31-5.93,0-2.65.94-4.21,2.7-4.92,1.1-.45,1.95-.44,3.09-.44h.35c.42.04.83.12,1.26.26,2.33.75,3.31,2.79,3.31,5.93,0,2.65-.94,4.21-2.7,4.92Z"/><path class="cls-3" d="m338.12,123.83h-5.72c-.33-.04-.61-.18-.84-.42-.24-.25-.37-.56-.41-.92.04-.36.17-.67.41-.92.28-.3.63-.44,1.06-.44h10.73v-5.75h-13.26c-1.92,0-3.46.6-4.61,1.81-1.16,1.21-1.73,2.82-1.73,4.82v1.18c0,2,.58,3.61,1.73,4.82,1.15,1.21,2.69,1.81,4.61,1.81h5.5c.42,0,.77.15,1.06.44.24.25.37.56.41.92-.04.36-.17.67-.41.92-.28.3-.63.44-1.06.44h-10.73v5.77h13.26c1.92,0,3.46-.61,4.61-1.82,1.16-1.21,1.73-2.83,1.73-4.84v-1.18c0-2.01-.58-3.62-1.73-4.83-1.15-1.21-2.69-1.82-4.61-1.82Z"/></g><g><path class="cls-2" d="m410.64,100.58c-12.99-1.37-19.9-10.05-19.9-24.89s7.39-21.34,19.46-23.09c.95-.14,1.95-.25,2.97-.32.75-.05,1.51-.08,2.29-.1.81-.02,1.61-.03,2.43-.04,4.04-.03,8.11.06,12.14.06v12.46h-12.19c-2.42,0-4.23-.02-6.57.9-3.75,1.47-5.75,4.67-5.75,10.14,0,6.47,2.07,10.67,7.02,12.21,1.78.55,3.39.64,5.23.64h12.26v12.42h-10.07c-3.17,0-6-.03-9.33-.38"/><path class="cls-2" d="m368.85,86.68v-5.04c-2.5-.41-5.07-.59-7.61-.59-1.83,0-4.94.21-6.08,1.9-.42.62-.55,1.35-.55,2.09,0,3.47,2.05,4.41,5.29,4.41s6.26-.96,8.95-2.76m-25.42-34.52h13.61c2.49,0,5.16-.06,7.64.08,5.99.34,12.47,1.9,16.12,6.85,2.1,2.83,2.85,6.24,2.85,9.71v32.18h-9.02l-3.61-3.61c-3.91,2.4-8.22,3.61-12.86,3.61-10.7,0-18.35-4.34-18.35-15.83,0-2.94.64-5.79,2.32-8.23,4.05-5.93,12.51-6.99,19.1-6.99,2.54,0,5.09.2,7.61.57v-1.48c0-.84-.13-1.69-.63-2.38-.88-1.28-2.71-1.78-4.41-1.97-2.49-.29-7.25-.09-9.51-.09h-10.86v-12.42Z"/><path class="cls-2" d="m322.8,56.57c3.36-2.68,7.26-4.41,11.71-4.41h1.65v12.57h-1.65c-3.91,0-7.13,1.67-9.84,4.36v31.89h-14.8v-48.82h11.84l1.09,4.41Z"/><path class="cls-2" d="m241.72,52.16h11.79v12.4h-10.19v19.3c0,2.85.76,4.71,3.85,4.71h6.34v12.42h-11.88c-8.94,0-13.1-5.25-13.1-13.92v-42.28h11.46l1.73,7.38Z"/><path class="cls-2" d="m188.39,57.31c3.96-3.28,8.58-5.15,13.91-5.15,12.01,0,17.83,6.66,17.83,18.47v30.36h-14.8v-30.36c0-4.09-1.75-5.89-5.84-5.89-3.51,0-6.59,1.49-9.27,3.6v32.65h-14.8v-48.82h11.88l1.1,5.15Z"/><rect class="cls-4" x="152.53" y="37.37" width="14.8" height="63.62"/><path class="cls-2" d="m450.85,52.16h11.8v12.4h-10.2v19.3c0,2.85.78,4.71,3.86,4.71h6.34v12.42h-11.89c-8.93,0-13.1-5.25-13.1-13.92v-42.28h11.46l1.73,7.38Z"/><path class="cls-2" d="m103.96,45.86c11.65,7.56,18.96,18.5,18.96,30.67,0,22.82-25.74,41.33-57.49,41.33-15.77,0-30.04-4.56-40.43-11.95l21.18-16.11c6.69,5.17,16.24,8.4,26.84,8.4,20.24,0,36.65-11.8,36.65-26.35,0-8.14-5.15-15.44-13.25-20.27l7.52-5.72Z"/><path class="cls-2" d="m300.92,88.41h-17.76c-1.58,0-3.09-.25-4.61-.73-1.76-.56-3.34-1.45-4.31-2.88-.52-.77-.84-1.64-1-2.54h29.87l.21-1.43c.26-1.95.39-3.9.39-5.86,0-14.82-7.43-22.8-22.38-22.8s-23.03,8.58-23.03,23.89c0,12.34,5.05,19.84,14.11,23.06,3.57,1.28,10.35,1.73,13.93,1.71h14.57v-12.42Zm-19.58-23.93c4.95,0,7.46,2,7.84,6.49h-15.85c.79-4.19,3.16-6.49,8.01-6.49"/><path class="cls-4" d="m468.85,24.92c1.04,0,2.05.27,3.04.8.99.53,1.76,1.3,2.31,2.29.55.99.83,2.03.83,3.11s-.27,2.09-.82,3.08c-.54.98-1.31,1.75-2.29,2.29-.98.54-2.01.82-3.08.82s-2.1-.27-3.08-.82c-.98-.54-1.75-1.31-2.29-2.29-.55-.98-.82-2.01-.82-3.08s.28-2.11.83-3.11c.56-.99,1.33-1.76,2.32-2.29.99-.53,2-.8,3.04-.8m0,1.03c-.87,0-1.72.22-2.54.67-.82.45-1.47,1.08-1.93,1.91-.46.83-.7,1.69-.7,2.59s.23,1.75.69,2.56c.46.82,1.1,1.45,1.92,1.91s1.68.68,2.57.68,1.75-.23,2.57-.68c.82-.46,1.46-1.09,1.91-1.91.45-.82.68-1.67.68-2.56s-.23-1.76-.69-2.59c-.46-.83-1.11-1.47-1.93-1.91-.83-.45-1.67-.67-2.54-.67m-2.72,8.59v-6.66h2.29c.78,0,1.35.06,1.7.19.35.12.63.34.84.64.21.31.31.63.31.98,0,.49-.17.91-.52,1.27-.35.36-.81.56-1.38.61.24.1.42.22.57.35.27.26.6.7.98,1.32l.81,1.3h-1.31l-.59-1.05c-.47-.83-.84-1.34-1.12-1.55-.2-.15-.48-.23-.86-.23h-.63v2.83h-1.07Zm1.07-3.75h1.3c.62,0,1.05-.09,1.28-.28.23-.19.34-.43.34-.74,0-.2-.05-.37-.16-.53-.11-.16-.26-.27-.46-.35-.19-.08-.55-.12-1.08-.12h-1.22v2.01Z"/><path class="cls-4" d="m65.97,44.78v43.07c2.83.77,5.88,1.18,9.06,1.18,1.97,0,3.89-.16,5.74-.47v-43.78h-14.8Z"/><path class="cls-4" d="m80.78,25.52v11.84h-14.81v-11.99c4.22-.57,9.42-.72,14.81.14"/></g></svg>