<?xml version="1.0" encoding="UTF-8" standalone="no"?>
<!-- Created with Inkscape (http://www.inkscape.org/) -->

<svg
   version="1.1"
   id="svg1"
   width="1191.36"
   height="462.69333"
   viewBox="0 0 1191.36 462.69333"
   sodipodi:docname="iterem complert.eps"
   xmlns:inkscape="http://www.inkscape.org/namespaces/inkscape"
   xmlns:sodipodi="http://sodipodi.sourceforge.net/DTD/sodipodi-0.dtd"
   xmlns="http://www.w3.org/2000/svg"
   xmlns:svg="http://www.w3.org/2000/svg">
  <defs
     id="defs1" />
  <sodipodi:namedview
     id="namedview1"
     pagecolor="#ffffff"
     bordercolor="#000000"
     borderopacity="0.25"
     inkscape:showpageshadow="2"
     inkscape:pageopacity="0.0"
     inkscape:pagecheckerboard="0"
     inkscape:deskcolor="#d1d1d1">
    <inkscape:page
       x="0"
       y="0"
       inkscape:label="1"
       id="page1"
       width="1191.36"
       height="462.69333"
       margin="0"
       bleed="0" />
  </sodipodi:namedview>
  <g
     id="g1"
     inkscape:groupmode="layer"
     inkscape:label="1">
    <g
       id="group-R5">
      <path
         id="path2"
         d="M 281.902,1905.9 H 63.2617 v 218.65 H 281.902 V 1905.9"
         style="fill:#f4f01f;fill-opacity:1;fill-rule:nonzero;stroke:none"
         transform="matrix(0.13333333,0,0,-0.13333333,0,462.69333)" />
      <path
         id="path3"
         d="m 4726.63,1153.88 c -0.45,-0.68 -1.22,-1.35 -1.27,-2.09 -0.89,-11.3 -4.96,-21.62 -10,-31.51 -18.96,-37.06 -48.9,-60.54 -89.66,-68.43 -69.65,-13.48 -133.91,31.17 -148.08,97.36 -15.36,71.75 30.21,137.12 97.1,151.16 70.09,14.69 128.94,-27.74 147.37,-84.36 1.41,-4.32 2.87,-8.64 2.98,-13.27 0.05,-1.14 0.28,-2.23 1.56,-2.68 0,-15.4 0,-30.79 0,-46.18"
         style="fill:#050607;fill-opacity:1;fill-rule:evenodd;stroke:none"
         transform="matrix(0.13333333,0,0,-0.13333333,0,462.69333)" />
      <path
         id="path4"
         d="m 3353.71,1774.84 c 2.45,1.98 4.41,3.92 6.39,5.82 37.52,35.89 81.76,59.29 132.23,71.05 33.81,7.87 68.06,10.38 102.68,9.01 29.44,-1.15 58.35,-5.38 86.58,-14.03 53.02,-16.27 95.68,-46.95 128.1,-91.9 1.49,-2.08 3,-4.14 4.54,-6.19 0.15,-0.16 0.51,-0.15 1.43,-0.42 1.66,1.75 3.58,3.74 5.46,5.77 25.65,27.97 54.96,51.19 88.71,68.73 28.22,14.66 58.06,24.59 89.23,30.77 28.62,5.69 57.55,7.96 86.66,7.65 36.95,-0.38 73.21,-5.24 108.32,-17.29 56.12,-19.25 100.4,-53.93 133.82,-102.7 23.17,-33.83 37.91,-71.21 46.45,-111.16 6.15,-28.8 8.91,-57.96 8.91,-87.41 -0.01,-163.02 0,-326.05 -0.03,-489.08 0,-10.9 1.49,-9.43 -9.49,-9.44 -66.4,-0.03 -132.81,-0.03 -199.21,0 -11.7,0 -10.17,-1.18 -10.17,9.81 -0.02,151.91 -0.04,303.8 0.01,455.72 0,22.41 -2.83,44.33 -10.55,65.43 -10.96,29.93 -29.53,53.69 -57.22,69.96 -16.2,9.51 -33.78,14.71 -52.37,17.01 -20.3,2.51 -40.44,1.78 -60.23,-3.3 -51.13,-13.15 -84.17,-45.61 -100.25,-95.51 -5.11,-15.81 -6.9,-32.26 -6.9,-48.89 0.03,-153.05 0.03,-306.1 0,-459.14 0,-3.38 1.47,-7.53 -0.74,-9.93 -2.52,-2.75 -6.94,-1.13 -10.54,-1.13 -66.11,-0.06 -132.23,-0.06 -198.36,-0.03 -10.52,0 -9.21,-0.93 -9.21,8.96 -0.03,151.35 -0.05,302.69 0.01,454.03 0,19.18 -1.83,38.1 -7,56.62 -6.9,24.66 -19.07,46.22 -37.71,63.97 -17.13,16.32 -37.4,26.81 -60.44,31.8 -28.95,6.28 -57.91,5.64 -86.13,-3.42 -44.05,-14.12 -72.87,-44.1 -87.58,-87.72 -6.44,-19.06 -8.79,-38.82 -8.75,-58.89 0.02,-8.83 0,-17.68 0,-26.52 0,-142.78 0.02,-285.55 -0.03,-428.35 0,-12 1.81,-10.47 -10.27,-10.48 -66.41,-0.03 -132.82,-0.03 -199.21,0 -10.88,0 -9.36,-1.4 -9.36,9.57 -0.03,259.93 -0.03,519.87 -0.03,779.8 0,2 -0.03,3.99 0.03,5.98 0.09,3.71 0.14,3.77 3.96,3.87 1.99,0.05 3.98,0.01 5.98,0.01 60.43,0 120.84,0 181.26,0 2.29,0 4.57,-0.02 6.84,-0.03 2.17,-0.01 2.96,-1.28 2.97,-3.24 0.03,-2.28 0.03,-4.56 0.03,-6.84 0.02,-17.1 0,-34.2 0.05,-51.3 0.01,-2.12 -0.56,-4.42 1.13,-7"
         style="fill:#050607;fill-opacity:1;fill-rule:evenodd;stroke:none"
         transform="matrix(0.13333333,0,0,-0.13333333,0,462.69333)" />
      <path
         id="path5"
         d="m 2647.73,1523.91 c 57.25,0 114.52,0 171.79,0.01 2.55,0 5.12,0.02 7.68,0.13 1.69,0.08 2.61,1.19 2.51,2.8 -0.35,5.11 -0.73,10.23 -1.28,15.32 -2.51,22.94 -9.08,44.58 -21.19,64.32 -17.55,28.61 -42.54,48.72 -72.93,62.23 -32.03,14.24 -65.64,17.91 -100.25,13.99 -42.65,-4.82 -78.76,-23.1 -109.11,-53.16 -21.97,-21.8 -37.82,-47.56 -48.97,-76.34 -3.29,-8.49 -6.23,-17.1 -8.5,-25.92 -0.57,-2.23 0.22,-3.24 2.48,-3.32 2.56,-0.11 5.13,-0.06 7.7,-0.06 56.7,0 113.37,0 170.07,0 z m -180.38,-154.97 c 0.19,-1.51 0.18,-2.95 0.58,-4.28 16.45,-53.82 47.81,-95.85 97.75,-123.09 21.93,-11.95 45.37,-19.65 69.88,-24.07 29.05,-5.27 58.35,-6.19 87.7,-3.35 42.06,4.1 81.95,15.95 119.82,34.71 22.01,10.9 42.79,23.77 62.57,38.28 1.6,1.18 3.19,2.4 4.8,3.56 3.79,2.71 4.06,2.71 6.46,-1.22 20.14,-33.07 40.26,-66.16 60.37,-99.24 8.73,-14.35 17.48,-28.69 26.17,-43.07 1.64,-2.7 1.6,-3.05 -0.73,-5 -10.46,-8.82 -21.28,-17.18 -32.4,-25.15 -47.35,-33.97 -98.74,-59.7 -155.04,-75.22 -26.12,-7.21 -52.67,-12.02 -79.65,-14.78 -30.12,-3.06 -60.28,-3.41 -90.45,-1.19 -53.19,3.93 -104.6,15.41 -153.48,37.25 -92.71,41.42 -171.49,120.27 -211.23,211.77 -12.88,29.65 -21.66,60.49 -26.91,92.36 -4.73,28.77 -6.81,57.71 -6.06,86.83 1.47,56.65 12.04,111.37 35.22,163.36 16.61,37.22 38.6,70.98 65.45,101.59 36.63,41.8 79.26,75.97 129.27,100.63 32.87,16.22 67.39,27.27 103.42,33.94 29.8,5.52 59.84,7.85 90.1,7.55 47.3,-0.48 93.58,-7.34 138.18,-23.69 56.56,-20.72 104.13,-54.5 143.71,-99.74 40.38,-46.16 67.32,-99.17 80.17,-159.16 8.53,-39.8 10.9,-80.04 8.02,-120.67 -1.98,-27.9 -6,-55.46 -12.28,-82.69 -0.19,-0.83 -0.31,-1.69 -0.48,-2.54 -0.37,-1.89 -1.41,-3.04 -3.45,-3.05 -2.55,-0.03 -5.13,-0.03 -7.7,-0.03 -179.8,0 -359.61,0 -539.42,-0.02 -3.37,0 -6.79,0.47 -10.36,-0.58"
         style="fill:#050607;fill-opacity:1;fill-rule:evenodd;stroke:none"
         transform="matrix(0.13333333,0,0,-0.13333333,0,462.69333)" />
      <path
         id="path6"
         d="m 1245.89,1539.3 c 41.87,0 83.75,-0.07 125.6,0.05 8.82,0.02 17.67,0.37 26.45,1.19 11.36,1.05 22.42,3.7 32.93,8.38 15.43,6.88 27.11,17.68 34.03,33.2 5.03,11.3 7.54,23.25 7.33,35.68 -0.25,15.68 -1.91,31.23 -5.02,46.62 -6.62,32.66 -20.03,62.17 -41.1,88.05 -18.29,22.5 -41.4,37.92 -69.25,46.11 -25.79,7.59 -52.07,8.7 -78.63,5.53 -41.1,-4.91 -75.95,-22.56 -105.26,-51.53 -21.11,-20.87 -37.34,-45.11 -49.56,-72.07 -19.15,-42.3 -27.74,-87.07 -30.9,-133.1 -0.61,-8.74 -0.86,-8.11 8.14,-8.11 48.4,0 96.84,0 145.24,0 z m 74.82,-66.97 c -72.68,0 -145.33,0 -218.01,0 -2.56,0 -5.12,-0.04 -7.7,-0.03 -2.21,0.02 -2.94,-1.23 -2.88,-3.23 0.36,-13.96 0.36,-27.93 1.18,-41.85 1.1,-18.76 3.13,-37.47 6.15,-56.04 8.18,-50.16 23,-97.99 49.73,-141.63 17.51,-28.59 39.44,-52.91 67.63,-71.34 23.39,-15.27 48.89,-25.49 76.03,-31.62 35.3,-7.97 71.04,-10.07 107,-6.6 36.18,3.48 70.32,13.5 101.05,33.6 16.08,10.52 30.33,23.14 43.48,37.04 18.69,19.74 34.54,41.62 49.04,64.55 1.68,2.63 3.18,5.34 5.58,7.51 8.07,7.32 17.31,8.22 27.09,4.73 7.9,-2.81 14.64,-7.66 19.91,-14.21 8.45,-10.53 9.82,-28.31 2.89,-39.48 -36.82,-59.25 -84.83,-106.85 -146.46,-140.17 -32.81,-17.71 -67.65,-29.57 -104.31,-36.31 -37.24,-6.83 -74.69,-7.86 -112.37,-5.38 -22.76,1.48 -45.3,4.48 -67.67,8.99 -114.32,23.07 -211.57,97.2 -262.043,206.95 -17.582,38.23 -29.66,78.11 -36.457,119.66 -6.082,37.27 -8.191,74.78 -6.011,112.41 3.261,56.08 17.507,109.43 41.379,160.26 18.656,39.76 42.496,76.02 72.782,107.88 35.73,37.55 76.65,67.91 124.21,88.92 27.48,12.12 56.09,20.31 85.73,25.18 36.22,5.94 72.56,6.19 109.06,3.59 27.93,-2 55.41,-6.48 82.3,-14.21 45.09,-12.93 85.4,-34.34 119.05,-67.49 28.8,-28.36 50.76,-61.3 66.18,-98.63 10.68,-25.9 18.07,-52.73 22.39,-80.4 0.89,-5.62 1.84,-11.24 2.59,-16.89 2.65,-19.73 1.69,-39.19 -4.23,-58.32 -5.95,-19.27 -17.76,-33.43 -36.06,-42.14 -13.22,-6.31 -27.15,-10.1 -41.57,-12.3 -15.54,-2.39 -31.19,-2.96 -46.88,-2.97 -63.25,-0.07 -126.53,-0.03 -189.78,-0.03"
         style="fill:#050607;fill-opacity:1;fill-rule:evenodd;stroke:none"
         transform="matrix(0.13333333,0,0,-0.13333333,0,462.69333)" />
      <path
         id="path7"
         d="m 1958.66,1760.2 c 7.38,7.74 14.07,15.14 21.17,22.13 37.41,36.73 81.88,59.85 133.46,69.58 26.52,5 53.19,6.02 80,4.46 15.34,-0.89 30.56,-3.27 45.34,-7.85 4.26,-1.32 4.26,-1.36 4.38,-5.88 0.04,-1.42 0.01,-2.84 0.01,-4.27 0,-58.13 0.02,-116.27 -0.01,-174.4 0,-10.4 1.29,-9.43 -9.7,-9.45 -15.1,-0.02 -30.21,0.06 -45.3,-0.02 -25.92,-0.13 -50.94,-4.91 -74.87,-14.94 -25.44,-10.68 -47.15,-26.41 -64.18,-48.22 -12.37,-15.87 -21.01,-33.81 -27.53,-52.76 -8.47,-24.64 -13.65,-49.95 -14.21,-76.09 -0.2,-8.83 -0.52,-17.65 -0.52,-26.49 -0.03,-125.65 -0.02,-251.32 -0.06,-376.99 0,-3.38 1.44,-7.53 -0.81,-9.94 -2.57,-2.75 -6.98,-1.09 -10.56,-1.12 -19.37,-0.12 -38.74,-0.06 -58.12,-0.06 -1.98,0 -3.99,0 -5.98,-0.03 -1.15,-0.03 -2.49,-0.17 -2.65,-1.54 -0.48,-4.09 -3.37,-3.73 -6.25,-3.7 -20.24,0.06 -40.47,0.15 -60.7,0.13 -37.62,-0.01 -75.2,-1.29 -112.76,-2.91 -15.37,-0.65 -30.75,-1.11 -46.09,-2.15 -13.52,-0.92 -22.31,5.37 -27.83,17 -6.01,12.7 -4.5,25.48 0.63,38.05 1.71,4.22 4.96,6.81 9.34,8.12 6.88,2.1 13.99,2.61 21.09,2.96 7.1,0.35 14.25,0.2 21.35,0.51 10.29,0.46 20.36,2.18 30.23,5.16 13.31,4.02 23.79,11.94 31.91,23.13 5.11,7.06 8.36,14.92 9.27,23.58 0.88,8.2 1.55,16.44 1.84,24.71 0.4,12.22 0.55,24.48 0.55,36.73 0.04,136.5 0.04,273 0,409.5 0,12.24 -0.25,24.5 -0.68,36.74 -0.27,7.39 -0.59,14.87 -1.82,22.13 -3.7,21.44 -16.51,35.82 -36.24,44.1 -11.12,4.67 -23.01,6.3 -35.02,6.96 -9.94,0.54 -19.94,-0.01 -29.85,1.51 -3.96,0.61 -7.78,1.62 -11.54,2.94 -6.39,2.24 -10.52,6.6 -12.47,13.03 -2.11,6.89 -3.23,13.96 -2.27,21.08 1.63,12.16 9.05,25.48 27.53,28.21 39.72,5.84 79.09,13.51 117.95,23.69 20.91,5.48 41.61,11.67 61.91,19.12 13.11,4.82 26.65,8.11 40.15,11.56 5.87,1.49 11.8,1.55 17.8,0.53 8.91,-1.52 15.05,-6.28 18.34,-14.72 2.21,-5.66 2.94,-11.55 2.92,-17.58 -0.04,-19.37 -0.04,-38.75 0.02,-58.14 0,-2.47 -0.53,-5.02 0.83,-8.1"
         style="fill:#050607;fill-opacity:1;fill-rule:evenodd;stroke:none"
         transform="matrix(0.13333333,0,0,-0.13333333,0,462.69333)" />
      <path
         id="path8"
         d="m 682.332,1492.28 c 0,-83.5 0,-167.01 0,-250.51 0,-20.93 2.387,-41.5 8.469,-61.57 3.32,-10.93 7.859,-21.34 13.637,-31.22 12.632,-21.63 31.699,-33.62 56.046,-37.93 10.754,-1.91 21.555,-1.96 32.383,-1.54 26.371,1.02 52.016,5.75 76.578,15.67 6.321,2.56 12.653,5.14 19.039,7.54 3.172,1.21 6.493,2.08 9.782,3.01 9.879,2.83 18.047,-0.08 24.214,-8.06 6.129,-7.94 10.508,-16.92 14.411,-26.11 2.707,-6.37 1.672,-12.25 -2.926,-17.49 -2.27,-2.56 -4.645,-5.01 -7.539,-6.9 -26.153,-16.88 -53.469,-31.42 -83.465,-40.37 -15.586,-4.63 -31.523,-7.48 -47.637,-9.72 -21.203,-2.91 -42.566,-3.55 -63.929,-3.84 -93.379,-1.27 -164.852,61.82 -189.434,133.81 -7.113,20.86 -11.625,42.21 -13.984,64.11 -1.559,14.47 -1.922,28.98 -1.922,43.52 0,163.6 0.015,327.2 -0.012,490.8 -0.016,13.03 1.656,11.24 -11.398,10.84 -28.465,-0.87 -56.95,-1.71 -85.415,-2.85 -9.199,-0.38 -15.906,3.12 -20.929,10.59 -4.133,6.12 -6.098,12.91 -6.156,20.15 -0.071,8.01 1.281,15.84 4.367,23.35 3.898,9.47 10.636,14.99 20.84,16.87 21.031,3.91 41.578,9.76 60.878,19.11 37.434,18.12 65.797,45.48 83.348,83.52 12.313,26.65 22.121,54.26 31.887,81.9 0.844,2.41 1.644,4.84 2.461,7.28 4.367,13.14 13.637,20.87 27.039,23.25 12.008,2.13 23.797,0.97 34.945,-4.66 8.789,-4.43 13.387,-11 12.645,-21.15 -0.973,-13.08 -1.528,-26.17 -2.356,-39.26 -0.801,-12.79 -1.777,-25.58 -2.547,-38.37 -1.98,-32.71 -3.886,-65.42 -5.851,-98.13 -0.262,-4.54 -0.742,-9.08 -0.988,-13.63 -0.176,-2.81 0.406,-3.37 3.464,-3.3 4.551,0.11 9.11,0.32 13.664,0.59 27.012,1.6 54.036,3.2 81.063,4.86 23.316,1.43 46.617,2.94 69.945,4.4 10.539,0.66 21.047,1.28 31.567,1.91 0.57,0.04 1.136,0.06 1.703,0.08 14.902,0.47 21.629,-7.1 23.84,-19.38 3.332,-18.42 0.597,-36.3 -6.68,-53.48 -0.774,-1.82 -1.852,-3.52 -2.91,-5.21 -3.016,-4.75 -7.235,-6.73 -12.953,-6.54 -26.489,0.92 -52.977,1.67 -79.461,2.36 -34.465,0.9 -68.93,1.67 -103.391,2.51 -0.848,0.02 -1.703,0.15 -2.547,0.15 -2.867,-0.02 -3.652,-0.69 -3.742,-3.32 -0.086,-2.56 -0.043,-5.13 -0.043,-7.7 0,-86.65 0,-173.29 0,-259.94"
         style="fill:#050607;fill-opacity:1;fill-rule:evenodd;stroke:none"
         transform="matrix(0.13333333,0,0,-0.13333333,0,462.69333)" />
      <path
         id="path9"
         d="m 285.438,1462.38 c 0,-76.09 0.015,-152.16 0,-228.23 0,-18.25 0.121,-36.48 1.75,-54.67 0.55,-6.23 0.96,-12.57 2.546,-18.57 5.34,-20.08 18.032,-33.88 37.403,-41.33 11.832,-4.57 24.289,-6 36.836,-6.58 7.39,-0.35 14.812,-0.29 22.207,-0.2 4.629,0.04 9.125,-0.7 13.461,-2.07 4.789,-1.53 8.66,-4.34 10.539,-9.27 4.468,-11.8 5.847,-23.85 1.34,-35.89 -4.34,-11.54 -11.618,-18.82 -26.649,-18.1 -21.902,1.04 -43.82,1.92 -65.738,2.67 -20.785,0.72 -41.582,1.31 -62.363,1.71 -20.782,0.4 -41.594,0.9 -62.375,0.61 -32.457,-0.44 -64.911,-1.37 -97.3794,-2.32 -21.9179,-0.64 -43.8203,-1.71 -65.7383,-2.53 -13.7695,-0.51 -22.05074,4.56 -27.56636,17.1 -5.53125,12.55 -4.089846,25.02 1.0625,37.29 1.6289,3.87 4.6289,6.34 8.70316,7.62 6.2851,1.98 12.7773,2.81 19.3398,3 6.2578,0.21 12.5313,0.05 18.7891,0.32 11.1211,0.47 22.0937,1.92 32.8476,4.98 12.7774,3.64 23.1249,10.8 31.2769,21.19 6.301,8.02 9.825,17.1 10.973,27.33 1.922,17.32 2.152,34.7 2.184,52.05 0.16,124.81 0.07,249.62 0.07,374.42 0,4.49 0.613,9.09 -2.473,13.05 -0.656,0.84 -0.742,2.13 -1.046,3.23 -6.258,21.09 -20.188,34.47 -41.0864,40.78 -10.9727,3.33 -22.2539,4.72 -33.6758,5.02 -8.8203,0.24 -17.668,-0.17 -26.4141,1.55 -4.2344,0.83 -8.2969,2 -12.1836,3.82 -3.44919,1.63 -6.25779,4.11 -7.72654,7.67 -5.312498,12.94 -6.55078,25.9 0.78516,38.56 4.23437,7.3 10.56638,11.92 18.90628,13.38 10.3593,1.82 20.7968,3.3 31.1875,5.01 52.8715,8.72 104.8865,20.73 155.2425,39.36 12.824,4.72 25.804,8.92 39.398,10.85 5.152,0.72 10.219,0.61 15.313,-0.3 8.234,-1.46 13.957,-6.06 17.199,-13.73 1.762,-4.24 2.797,-8.67 2.969,-13.27 0.101,-2.84 0.086,-5.69 0.086,-8.54 0,-92.32 0,-184.64 0,-276.97"
         style="fill:#050607;fill-opacity:1;fill-rule:evenodd;stroke:none"
         transform="matrix(0.13333333,0,0,-0.13333333,0,462.69333)" />
      <path
         id="path10"
         d="m 1245.89,1539.3 c -48.4,0 -96.84,0 -145.24,0 -9,0 -8.75,-0.63 -8.14,8.11 3.16,46.03 11.75,90.8 30.9,133.1 12.22,26.96 28.45,51.2 49.56,72.07 29.31,28.97 64.16,46.62 105.26,51.53 26.56,3.17 52.84,2.06 78.63,-5.53 27.85,-8.19 50.96,-23.61 69.25,-46.11 21.07,-25.88 34.48,-55.39 41.1,-88.05 3.11,-15.39 4.77,-30.94 5.02,-46.62 0.21,-12.43 -2.3,-24.38 -7.33,-35.68 -6.92,-15.52 -18.6,-26.32 -34.03,-33.2 -10.51,-4.68 -21.57,-7.33 -32.93,-8.38 -8.78,-0.82 -17.63,-1.17 -26.45,-1.19 -41.85,-0.12 -83.73,-0.05 -125.6,-0.05"
         style="fill:#ffffff;fill-opacity:1;fill-rule:evenodd;stroke:none"
         transform="matrix(0.13333333,0,0,-0.13333333,0,462.69333)" />
      <path
         id="path11"
         d="M 5465,3470.21 H 8935.21 V 0 H 5465 v 3470.21"
         style="fill:#f4f01f;fill-opacity:1;fill-rule:nonzero;stroke:none"
         transform="matrix(0.13333333,0,0,-0.13333333,0,462.69333)" />
      <path
         id="path12"
         d="m 7042.63,1871.97 c -136.41,0 -170.52,-282.26 5.31,-352.32 156.7,65.8 126.86,352.32 -5.31,352.32 z m -256.6,-702.58 c -189.23,0 -342.18,54.97 -454.89,163.58 -167.37,161.27 -175.37,375.64 -175.72,399.56 l -0.02,2.15 v 200.68 h 285.17 v -198.81 c 0.3,-5.1 -2.75,-221.44 266.03,-276.93 -59.58,100.56 -67.28,198.11 -67.28,241.59 0,226.57 138.53,455.94 403.31,455.94 105.67,0 197.82,-37.2 266.5,-107.58 129.89,-133.12 128.75,-337.49 128.19,-360.35 h -0.03 c -0.63,-15.95 -7.17,-118.86 -67.57,-228.98 120.29,-3.6 202.14,40.21 256.66,137.65 44.35,79.24 53.95,165.37 55.31,180.25 0.91,36.98 11.18,172.3 109.12,271.32 45.52,46.02 127.24,100.9 258.07,100.9 v -285.18 c -39.23,0 -51.34,-12.24 -55.32,-16.25 -21.88,-22.13 -26.85,-69.74 -26.79,-75.74 l 0.06,-4.75 -0.27,-4.76 c -13.42,-240.75 -180.5,-588.76 -584.13,-588.79 -10.16,-0.01 -20.38,0.22 -30.84,0.66 -108.13,0.23 -204.93,11.8 -290.07,34.59 -70.42,-23.41 -154.09,-38.29 -253.4,-40.5 -7.41,-0.16 -14.78,-0.25 -22.09,-0.25"
         style="fill:#040606;fill-opacity:1;fill-rule:nonzero;stroke:none"
         transform="matrix(0.13333333,0,0,-0.13333333,0,462.69333)" />
      <path
         id="path13"
         d="m 8463.25,2014.56 c 0,-85.3 -69.16,-154.45 -154.47,-154.45 -85.29,0 -154.45,69.15 -154.45,154.45 0,85.29 69.16,154.46 154.45,154.46 85.31,0 154.47,-69.17 154.47,-154.46"
         style="fill:#040606;fill-opacity:1;fill-rule:nonzero;stroke:none"
         transform="matrix(0.13333333,0,0,-0.13333333,0,462.69333)" />
      <path
         id="path14"
         d="m 6437.82,2060.99 h -279.7 v 279.7 h 279.7 v -279.7"
         style="fill:#767a7c;fill-opacity:1;fill-rule:nonzero;stroke:none"
         transform="matrix(0.13333333,0,0,-0.13333333,0,462.69333)" />
    </g>
  </g>
</svg>
